<?xml version="1.0" standalone="no"?><!DOCTYPE svg PUBLIC "-//W3C//DTD SVG 1.1//EN" "http://www.w3.org/Graphics/SVG/1.1/DTD/svg11.dtd"><svg t="1574085219478" class="icon" viewBox="0 0 1194 1024" version="1.1" xmlns="http://www.w3.org/2000/svg" p-id="19920" xmlns:xlink="http://www.w3.org/1999/xlink" width="233.203125" height="200"><defs><style type="text/css"></style></defs><path d="M528.128 550.4v-8.533333 8.533333z m-146.261333-8.405333v8.533333-8.533333z m794.282666 399.189333c-22.698667-147.072-105.386667-268.928-220.672-324.138667a255.530667 255.530667 0 0 0 112.810667-263.594666c-17.621333-94.634667-91.221333-173.568-184.405333-198.101334a254.634667 254.634667 0 0 0-167.338667 11.946667C679.68 88.704 607.317333 28.288 521.728 8.448a292.821333 292.821333 0 0 0-362.794667 284.245333c0 106.837333 57.856 199.253333 143.36 250.453334C154.88 605.312 43.946667 756.906667 18.346667 942.08c-5.973333 43.349333 29.226667 81.621333 72.96 81.621333h798.762666v-0.256h213.205334c44.032 0 79.488-38.826667 72.832-82.304z m-1085.098666 9.386667c22.016-154.709333 112.810667-286.549333 239.786666-340.181334l2.773334-1.194666a72.704 72.704 0 0 0 44.672-65.877334 72.533333 72.533333 0 0 0-9.6-34.517333 72.704 72.704 0 0 0-26.154667-26.666667l-2.816-1.706666c-67.413333-40.277333-107.562667-110.421333-107.562667-187.477334a219.52 219.52 0 0 1 219.306667-219.349333 219.52 219.52 0 0 1 219.221333 219.477333c0 77.056-40.277333 147.2-107.605333 187.434667l-2.816 1.749333a73.770667 73.770667 0 0 0-35.712 61.056 72.704 72.704 0 0 0 44.672 65.877334l2.773333 1.194666c126.933333 53.632 217.728 185.344 239.744 340.266667H91.093333v-0.128z m794.538666-0.170667c-23.338667-188.928-135.338667-344.149333-285.056-407.466667 99.754667-59.605333 161.877333-175.616 138.24-305.066666a180.949333 180.949333 0 0 1 78.165334-18.261334 183.04 183.04 0 0 1 176.938666 229.077334c-11.477333 46.378667-44.16 84.906667-84.394666 110.805333l13.866666-8.96a72.021333 72.021333 0 0 0-24.533333 26.410667 72.106667 72.106667 0 0 0-8.96 34.944v8.661333a72.746667 72.746667 0 0 0 41.472 65.834667L923.605333 682.666667c96.256 45.994667 163.456 146.773333 180.778667 267.733333h-218.794667z" fill="#143A6E" p-id="19921"></path></svg>